<svg width="240" height="94" viewBox="0 0 240 94" fill="none" xmlns="http://www.w3.org/2000/svg">
<path d="M99.4908 42.1608C99.4908 43.3299 99.6161 44.2758 99.8354 44.971C100.086 45.6662 100.397 46.4241 100.836 47.2446C100.993 47.4973 101.055 47.7499 101.055 47.9712C101.055 48.2865 100.867 48.6018 100.462 48.919L98.492 50.2448C98.21 50.4348 97.93 50.5288 97.6793 50.5288C97.366 50.5288 97.0546 50.3701 96.7413 50.0862C96.3026 49.6123 95.9286 49.107 95.6152 48.6018C95.3019 48.0652 94.9905 47.4659 94.6459 46.7394C92.2077 49.6436 89.1429 51.0967 85.4534 51.0967C82.8273 51.0967 80.7319 50.3388 79.2005 48.823C77.6691 47.3073 76.8877 45.2863 76.8877 42.76C76.8877 40.0771 77.8257 37.8975 79.7332 36.2564C81.6406 34.6153 84.1727 33.7928 87.3922 33.7928C88.4556 33.7928 89.5503 33.8868 90.7057 34.0455C91.8611 34.2041 93.0498 34.4567 94.3012 34.7407V32.4357C94.3012 30.0368 93.8018 28.3624 92.8324 27.3832C91.8317 26.404 90.1437 25.9301 87.7369 25.9301C86.6422 25.9301 85.5181 26.0555 84.3607 26.3414C83.2033 26.6253 82.0792 26.972 80.9845 27.4145C80.4852 27.6358 80.1092 27.7612 79.8898 27.8258C79.6705 27.8885 79.5138 27.9198 79.3904 27.9198C78.9518 27.9198 78.7344 27.6045 78.7344 26.9406V25.3935C78.7344 24.8883 78.7971 24.5103 78.9537 24.289C79.1104 24.0678 79.3924 23.8465 79.8291 23.6252C80.9238 23.0573 82.2359 22.5833 83.7693 22.2034C85.3007 21.7922 86.9261 21.6042 88.6455 21.6042C92.3664 21.6042 95.0865 22.456 96.8372 24.1618C98.5567 25.8675 99.432 28.4564 99.432 31.9285V42.1588L99.4908 42.1608ZM86.7969 46.9587C87.8289 46.9587 88.8923 46.7688 90.0164 46.3908C91.1424 46.0128 92.1431 45.3176 92.9872 44.3698C93.4865 43.7705 93.8625 43.1067 94.0505 42.3488C94.2385 41.5909 94.3639 40.6744 94.3639 39.6013V38.2755C93.4572 38.0542 92.4878 37.8642 91.4871 37.7389C90.4864 37.6135 89.517 37.5489 88.5476 37.5489C86.4522 37.5489 84.9208 37.9602 83.8887 38.812C82.8567 39.6639 82.3573 40.8644 82.3573 42.4428C82.3573 43.9272 82.7333 45.0317 83.5147 45.7896C84.2647 46.5808 85.3594 46.9587 86.7969 46.9587ZM111.903 50.3701C111.341 50.3701 110.965 50.2761 110.714 50.0548C110.463 49.8649 110.246 49.4243 110.058 48.823L102.71 24.4163C102.522 23.7858 102.428 23.3745 102.428 23.1532C102.428 22.648 102.679 22.364 103.178 22.364H106.243C106.836 22.364 107.244 22.458 107.463 22.6793C107.714 22.8693 107.9 23.3099 108.088 23.9111L113.34 44.8143L118.216 23.9111C118.373 23.2805 118.561 22.8693 118.81 22.6793C119.06 22.4893 119.497 22.364 120.061 22.364H122.562C123.155 22.364 123.563 22.458 123.813 22.6793C124.064 22.8693 124.281 23.3099 124.407 23.9111L129.346 45.067L134.754 23.9111C134.942 23.2805 135.162 22.8693 135.379 22.6793C135.63 22.4893 136.035 22.364 136.599 22.364H139.507C140.007 22.364 140.289 22.6166 140.289 23.1532C140.289 23.3118 140.257 23.4685 140.226 23.6585C140.195 23.8484 140.132 24.101 140.007 24.4477L132.473 48.8544C132.285 49.485 132.066 49.8962 131.817 50.0862C131.568 50.2761 131.161 50.4015 130.628 50.4015H127.939C127.346 50.4015 126.939 50.3075 126.688 50.0862C126.437 49.8649 126.22 49.4556 126.095 48.823L121.25 28.4564L116.436 48.7917C116.28 49.4223 116.092 49.8335 115.843 50.0548C115.592 50.2761 115.155 50.3701 114.591 50.3701H111.903ZM152.076 51.222C150.451 51.222 148.825 51.032 147.262 50.6541C145.7 50.2761 144.48 49.8649 143.667 49.391C143.167 49.107 142.823 48.7917 142.697 48.5078C142.572 48.2238 142.509 47.9085 142.509 47.6245V46.0148C142.509 45.3509 142.76 45.0356 143.228 45.0356C143.416 45.0356 143.604 45.067 143.79 45.1296C143.978 45.1923 144.258 45.3196 144.572 45.4449C145.635 45.9188 146.79 46.2968 148.01 46.5494C149.262 46.802 150.48 46.9274 151.731 46.9274C153.701 46.9274 155.233 46.5808 156.296 45.8855C157.36 45.1903 157.922 44.1798 157.922 42.8854C157.922 42.0022 157.64 41.2756 157.078 40.6744C156.515 40.0752 155.452 39.5386 153.921 39.0333L149.387 37.6116C147.106 36.885 145.418 35.8119 144.386 34.3901C143.354 33.0017 142.823 31.4546 142.823 29.8115C142.823 28.4858 143.105 27.3166 143.667 26.3061C144.229 25.2956 144.981 24.4124 145.917 23.7172C146.855 22.9907 147.918 22.4541 149.168 22.0761C150.419 21.7001 151.731 21.5415 153.108 21.5415C153.795 21.5415 154.514 21.5728 155.203 21.6668C155.922 21.7608 156.578 21.8881 157.236 22.0135C157.861 22.1721 158.456 22.3288 159.018 22.5187C159.58 22.7087 160.019 22.8967 160.332 23.0866C160.771 23.3393 161.082 23.5919 161.27 23.8758C161.458 24.1285 161.552 24.4751 161.552 24.9177V26.4021C161.552 27.066 161.302 27.4126 160.834 27.4126C160.583 27.4126 160.178 27.2873 159.645 27.0346C157.863 26.2141 155.861 25.8028 153.643 25.8028C151.861 25.8028 150.454 26.0868 149.485 26.686C148.516 27.2853 148.016 28.2018 148.016 29.4963C148.016 30.3795 148.33 31.1373 148.954 31.7385C149.579 32.3378 150.736 32.939 152.393 33.4756L156.833 34.8973C159.083 35.6239 160.71 36.6344 161.678 37.9288C162.645 39.2233 163.115 40.7077 163.115 42.3488C163.115 43.7059 162.833 44.9377 162.302 46.0109C161.74 47.084 160.988 48.0319 160.021 48.7898C159.052 49.579 157.894 50.1469 156.551 50.5581C155.139 51.0007 153.67 51.222 152.076 51.222Z" fill="#252F3E"/>
<path d="M157.983 66.5676C147.698 74.2404 132.754 78.3137 119.903 78.3137C101.897 78.3137 85.6699 71.5888 73.4146 60.4106C72.4452 59.5274 73.3206 58.327 74.478 59.0222C87.7339 66.7889 104.084 71.4948 120.998 71.4948C132.409 71.4948 144.947 69.0958 156.481 64.1687C158.203 63.3795 159.671 65.3045 157.983 66.5676ZM162.266 61.6424C160.952 59.9367 153.575 60.8219 150.23 61.2312C149.23 61.3565 149.073 60.4733 149.98 59.8094C155.857 55.6421 165.517 56.8406 166.643 58.231C167.769 59.6528 166.33 69.4092 160.829 74.0818C159.985 74.8083 159.172 74.4284 159.546 73.4825C160.797 70.357 163.58 63.3148 162.266 61.6424Z" fill="#FF9900"/>
</svg>
