<svg width="240" height="70" viewBox="0 0 240 70" fill="none" xmlns="http://www.w3.org/2000/svg">
<path d="M41.2513 65.3773C52.7073 63.3536 62.1693 61.6789 62.278 61.6559L62.4756 61.614L51.66 48.7492C45.7114 41.6735 40.8444 35.8569 40.8444 35.8234C40.8444 35.7599 52.0124 5.00559 52.0752 4.89617C52.0962 4.85959 59.6964 17.9811 70.4985 36.7035C80.6117 54.2319 88.9495 68.684 89.027 68.8194L89.1679 69.0657L54.7951 69.0612L20.4222 69.0568L41.2513 65.3773ZM173.067 62.266C167.835 61.9306 164.792 58.9512 163.986 53.3745C163.771 51.8911 163.77 51.8526 163.748 42.2218L163.727 32.9008H166.043H168.358L168.377 41.9166C168.393 50.0423 168.403 50.995 168.481 51.5666C168.796 53.8865 169.424 55.4465 170.493 56.5663C171.348 57.4625 172.349 57.9872 173.735 58.2657C174.389 58.397 176.249 58.3973 176.845 58.2662C178.25 57.957 179.376 57.3456 180.369 56.3525C181.502 55.2207 182.339 53.6148 182.745 51.7989L182.881 51.1868L182.897 42.0947L182.912 33.0027H185.276H187.64V47.2957V61.5887H185.3H182.96V59.3209C182.96 57.7801 182.944 57.0588 182.908 57.0708C182.879 57.0804 182.759 57.2643 182.641 57.4793C181.834 58.9498 180.491 60.2945 179.019 61.1047C177.255 62.0758 175.485 62.421 173.067 62.266ZM226.175 62.2429C224.328 62.1041 222.383 61.4691 220.794 60.4858C217.443 58.4135 215.461 54.9975 214.881 50.2966C214.68 48.6699 214.656 46.4848 214.823 45.1025C215.198 42.014 216.411 38.982 218.14 36.8174C218.583 36.2625 219.588 35.2575 220.143 34.8144C221.641 33.6181 223.394 32.7815 225.254 32.3744C226.339 32.1372 228.248 32.0259 229.4 32.1326C232.294 32.4008 234.946 33.7633 236.748 35.9077C238.58 38.0864 239.586 41.1307 239.715 44.8795C239.735 45.467 239.74 46.497 239.726 47.1684L239.7 48.3892L229.565 48.402L219.43 48.4148V48.8671C219.43 50.2439 219.765 51.812 220.344 53.1462C220.843 54.2967 221.702 55.5531 222.405 56.1611C223.847 57.4077 225.612 58.1539 227.543 58.3335C228.259 58.4 230.084 58.3299 230.9 58.2046C233.229 57.8468 235.442 56.9336 237.23 55.5934C237.44 55.4357 237.641 55.2884 237.677 55.2661C237.729 55.2333 237.741 55.6453 237.74 57.3769L237.738 59.5285L237.26 59.8247C235.237 61.0754 232.921 61.8784 230.468 62.179C229.736 62.2687 227.05 62.3087 226.175 62.2429ZM234.995 44.0965C234.995 41.7902 234.023 39.2283 232.648 37.9091C231.666 36.9677 230.48 36.3923 229.069 36.1738C228.402 36.0705 226.996 36.1103 226.292 36.2524C224.805 36.553 223.574 37.2068 222.501 38.2671C221.372 39.3829 220.526 40.7382 219.993 42.2824C219.802 42.8377 219.578 43.7493 219.508 44.2564L219.475 44.498H227.235H234.995V44.0965ZM97.5184 61.525C97.5303 61.49 100.972 52.4489 105.166 41.4336L112.793 21.4058L115.243 21.4056L117.693 21.4055L117.897 21.9268C118.518 23.5201 133.164 61.5451 133.164 61.5649C133.164 61.5779 131.991 61.5884 130.557 61.5882L127.95 61.5876L125.839 55.9676L123.728 50.3475L115.229 50.3474L106.73 50.3473L106.656 50.538C106.615 50.643 105.713 53.1718 104.652 56.1577L102.721 61.5866L100.109 61.5875C98.0414 61.5882 97.5013 61.5753 97.5184 61.525ZM122.177 46.0586C122.177 46.0497 120.757 42.1986 119.02 37.5006C115.772 28.7115 115.59 28.1827 115.334 26.7716C115.213 26.11 115.153 26.0916 115.081 26.6953C115.03 27.1269 114.809 28.0926 114.638 28.6282C114.553 28.894 113.091 32.9086 111.388 37.5496C109.684 42.1906 108.291 46.0074 108.291 46.0313C108.291 46.0552 111.415 46.0748 115.234 46.0748C119.053 46.0748 122.177 46.0675 122.177 46.0586ZM134.741 60.8566V60.1246L143.209 48.4837L151.677 36.8429L144.01 36.8174L136.343 36.792L136.33 34.8464L136.316 32.9008H147.405H158.494V33.558V34.2151L150.026 45.9195C145.368 52.3569 141.557 57.6347 141.557 57.6479C141.557 57.6611 145.322 57.672 149.924 57.672H158.291V59.6303V61.5886H146.516H134.741V60.8566ZM196.88 61.5546C196.862 61.536 196.846 55.0813 196.846 47.2108V32.9008H199.161H201.475V35.851C201.475 37.4736 201.495 38.8012 201.519 38.8012C201.543 38.8012 201.656 38.5356 201.769 38.2109C202.29 36.7234 203.192 35.3334 204.355 34.2287C205.402 33.2336 206.599 32.6385 208.011 32.4107C208.408 32.3467 208.744 32.3345 209.537 32.3552C210.534 32.3812 211.055 32.454 211.661 32.6521L211.852 32.7145V35.1167V37.519L211.305 37.2453C210.339 36.7618 209.386 36.5704 208.24 36.63C207.495 36.6688 207.005 36.7645 206.409 36.9883C205.183 37.4486 204.188 38.261 203.493 39.3701C202.486 40.9756 201.768 43.0393 201.557 44.9361C201.519 45.2765 201.496 48.0487 201.487 53.5138L201.474 61.5886H199.194C197.94 61.5886 196.899 61.5733 196.88 61.5546ZM0 61.4541C0 61.436 5.09626 52.5893 11.325 41.7948L22.65 22.1684L35.848 11.0926C43.1069 5.00091 49.0656 0.00935361 49.0895 0.000250225C49.1134 -0.00885136 49.0179 0.231483 48.8773 0.53433C48.7367 0.837176 42.2877 14.6697 34.5461 31.2732L20.4706 61.4614L10.2353 61.4742C4.60588 61.4813 0 61.4722 0 61.4541Z" fill="#0089D6"/>
</svg>
