<svg width="240" height="94" viewBox="0 0 240 94" fill="none" xmlns="http://www.w3.org/2000/svg">
<path d="M127.629 18.1292L129.421 18.1605L134.29 13.2913L134.525 11.228C130.656 7.78604 125.564 5.69141 119.991 5.69141C109.902 5.69141 101.386 12.5565 98.8633 21.8563C99.3959 21.485 100.532 21.7623 100.532 21.7623L110.264 20.1611C110.264 20.1611 110.765 19.3308 111.016 19.3825C113.105 17.0972 115.987 15.695 119.075 15.4621C122.162 15.2292 125.221 16.1831 127.629 18.1292Z" fill="#EA4335"/>
<path d="M141.149 21.8736C140.031 17.7575 137.735 14.0573 134.544 11.2266L127.648 18.123C129.063 19.2605 130.205 20.701 130.99 22.3384C131.775 23.9758 132.183 25.7683 132.183 27.5841V28.8014C135.539 28.8014 138.262 31.5321 138.262 34.8801C138.262 38.2281 135.531 40.9588 132.183 40.9588H120.023L118.806 42.1808V49.4783L120.023 50.6893H132.183C136.371 50.6782 140.385 49.0088 143.345 46.0464C146.305 43.084 147.972 39.0697 147.98 34.8817C147.974 29.4986 145.26 24.7297 141.134 21.8736H141.149Z" fill="#4285F4"/>
<path d="M107.833 50.7006H119.991V40.9684H107.833C106.97 40.9689 106.117 40.7834 105.331 40.4248L103.577 40.9622L98.7074 45.8314L98.2812 47.4764C101.021 49.5798 104.381 50.7149 107.835 50.7037L107.833 50.7006Z" fill="#34A853"/>
<path d="M107.833 19.0737C103.641 19.0804 99.6229 20.7486 96.6586 23.7128C93.6944 26.6771 92.0262 30.6956 92.0195 34.8877C92.0195 37.3287 92.5854 39.7365 93.6727 41.9221C94.76 44.1076 96.3392 46.0113 98.2862 47.4837L105.336 40.4337C104.268 39.9532 103.362 39.1745 102.726 38.1912C102.09 37.2079 101.752 36.0618 101.752 34.8908C101.752 31.535 104.482 28.8121 107.83 28.8121C109.001 28.8142 110.146 29.1533 111.129 29.789C112.112 30.4246 112.891 31.33 113.373 32.3967L120.423 25.3467C117.531 21.5397 112.966 19.08 107.827 19.08L107.833 19.0737Z" fill="#FBBC05"/>
<path d="M44.8004 81.368C41.479 81.368 38.6277 80.193 36.2244 77.843C33.8212 75.493 32.6211 72.6667 32.6211 69.3704C32.6211 66.0742 33.8196 63.2479 36.2244 60.8979C38.6293 58.5479 41.4837 57.3713 44.8004 57.3713C46.3218 57.3492 47.8325 57.6301 49.2443 58.1976C50.6562 58.7652 51.9409 59.608 53.0238 60.677L50.7098 62.991C49.1264 61.4598 47.0012 60.6178 44.7988 60.6488C42.4018 60.6488 40.3651 61.4948 38.6951 63.1978C37.8826 64.0046 37.242 64.9676 36.812 66.0288C36.382 67.0899 36.1715 68.2272 36.1931 69.372C36.1931 71.7941 37.0234 73.848 38.6951 75.5447C39.4806 76.3689 40.4287 77.021 41.4794 77.4598C42.5301 77.8985 43.6604 78.1144 44.7988 78.0936C47.2397 78.0936 49.256 77.3103 50.8618 75.6904C51.8018 74.7504 52.4285 73.3404 52.6478 71.5622H44.8051V68.2847H55.8407C55.9582 68.8675 55.9973 69.5381 55.9973 70.3214C55.9973 73.5425 55.0526 76.0961 53.157 77.9902C51.0075 80.2384 48.222 81.3586 44.7831 81.3586L44.8004 81.368ZM70.4467 79.1746C68.9427 80.6473 67.1097 81.368 64.9446 81.368C62.7794 81.368 60.9433 80.6316 59.4424 79.1746C57.9416 77.7176 57.1896 75.8643 57.1896 73.66C57.1896 71.4557 57.9416 69.618 59.4424 68.1453C60.9433 66.6726 62.7794 65.952 64.9446 65.952C67.1097 65.952 68.9458 66.6883 70.4467 68.1453C71.9476 69.6023 72.6996 71.4604 72.6996 73.66C72.6996 75.8596 71.9476 77.702 70.4467 79.1746ZM61.8708 77.0126C62.2616 77.4374 62.7373 77.7753 63.2671 78.0044C63.7969 78.2335 64.3689 78.3488 64.9461 78.3427C66.1368 78.3427 67.1614 77.9009 68.0215 77.0111C68.8816 76.1212 69.3093 75.0057 69.3093 73.6584C69.3093 72.2954 68.8863 71.1705 68.0356 70.2901C67.1849 69.4096 66.1587 68.9741 64.9461 68.9741C64.3678 68.9652 63.794 69.0777 63.2618 69.3044C62.7297 69.5311 62.251 69.8669 61.8567 70.2901C61.006 71.1674 60.583 72.2891 60.583 73.6584C60.583 75.0026 61.0107 76.1228 61.8708 77.0111V77.0126ZM87.3651 79.1746C85.8611 80.6473 84.0281 81.368 81.863 81.368C79.6979 81.368 77.8617 80.6316 76.3609 79.1746C74.86 77.7176 74.108 75.8643 74.108 73.66C74.108 71.4557 74.86 69.618 76.3609 68.1453C77.8617 66.6726 79.6979 65.952 81.863 65.952C84.0281 65.952 85.8643 66.6883 87.3651 68.1453C88.866 69.6023 89.618 71.4604 89.618 73.66C89.618 75.8596 88.866 77.702 87.3651 79.1746ZM78.7892 77.0126C79.18 77.4374 79.6558 77.7753 80.1856 78.0044C80.7154 78.2335 81.2874 78.3488 81.8646 78.3427C83.0552 78.3427 84.0798 77.9009 84.9399 77.0111C85.8 76.1212 86.2277 75.0057 86.2277 73.6584C86.2277 72.2954 85.8047 71.1705 84.954 70.2901C84.1033 69.4096 83.0772 68.9741 81.8646 68.9741C81.2862 68.9652 80.7124 69.0777 80.1803 69.3044C79.6481 69.5311 79.1694 69.8669 78.7751 70.2901C77.9244 71.1674 77.5014 72.2891 77.5014 73.6584C77.5014 75.0026 77.9291 76.1228 78.7892 77.0111V77.0126ZM98.4869 88.324C96.7714 88.324 95.3269 87.8634 94.1566 86.9453C92.9863 86.0272 92.1482 84.965 91.6406 83.7524L94.5984 82.5257C94.9086 83.2683 95.3818 83.9122 96.0601 84.459C96.7385 85.0058 97.5328 85.2768 98.4916 85.2768C99.7794 85.2768 100.791 84.8851 101.52 84.1065C102.248 83.3279 102.617 82.2014 102.617 80.7382V79.6415H102.499C101.559 80.8118 100.185 81.3993 98.4321 81.3993C96.4612 81.3993 94.7347 80.6473 93.2511 79.1464C92.5304 78.437 91.9616 77.5884 91.5791 76.6522C91.1967 75.716 91.0086 74.7118 91.0264 73.7007C91.0083 72.6832 91.1961 71.6726 91.5784 70.7295C91.9607 69.7864 92.5296 68.9303 93.2511 68.2127C94.7316 66.704 96.4628 65.9457 98.4321 65.9457C99.3094 65.9457 100.105 66.1102 100.817 66.4439C101.528 66.7776 102.09 67.1865 102.499 67.6706H102.617V66.4267H105.838V80.3026C105.838 82.9973 105.151 85.0089 103.773 86.35C102.394 87.6816 100.636 88.3553 98.4885 88.3553L98.4869 88.324ZM98.7219 78.3412C99.2804 78.351 99.8342 78.2368 100.343 78.0068C100.852 77.7768 101.304 77.4367 101.666 77.0111C102.455 76.1228 102.85 75.0167 102.85 73.6866C102.85 72.3424 102.455 71.2175 101.666 70.3183C101.306 69.8892 100.855 69.5458 100.346 69.3133C99.8365 69.0807 99.2817 68.9648 98.7219 68.9741C97.5312 68.9741 96.516 69.4253 95.6794 70.3183C94.8428 71.2113 94.4198 72.3361 94.4198 73.6866C94.4198 75.012 94.8381 76.1228 95.6794 77.0111C96.5207 77.8994 97.5328 78.3412 98.7219 78.3412ZM111.572 58.186V80.9027H108.177V58.186H111.572ZM120.878 81.3664C118.691 81.3664 116.867 80.6238 115.404 79.1417C113.941 77.6597 113.207 75.8267 113.207 73.6396C113.207 71.3773 113.912 69.5193 115.329 68.0779C115.993 67.3788 116.795 66.8251 117.685 66.4519C118.574 66.0786 119.531 65.894 120.495 65.9097C121.431 65.9097 122.302 66.0789 123.101 66.422C123.844 66.7264 124.52 67.1735 125.09 67.738C125.567 68.2118 125.989 68.7367 126.35 69.3031C126.649 69.7871 126.903 70.2967 127.111 70.8259L127.464 71.7032L117.133 75.9833C117.917 77.5437 119.17 78.3255 120.881 78.3255C122.441 78.3255 123.712 77.6158 124.685 76.1901L127.317 77.9479C126.729 78.8253 125.902 79.6164 124.829 80.3183C123.756 81.0202 122.435 81.368 120.875 81.368L120.878 81.3664ZM116.576 73.4077L123.469 70.5407C123.272 70.0519 122.914 69.6571 122.372 69.3563C121.827 69.051 121.211 68.8953 120.586 68.9051C119.59 68.9051 118.659 69.3125 117.793 70.1318C116.927 70.9512 116.508 72.0463 116.547 73.4093L116.576 73.4077ZM145.293 81.3664C142.206 81.3664 139.621 80.323 137.535 78.2331C135.448 76.1431 134.401 73.5409 134.401 70.4185C134.401 67.2962 135.445 64.6908 137.535 62.604C139.624 60.5172 142.208 59.4707 145.293 59.4707C148.453 59.4707 151.02 60.6143 152.99 62.8938L151.118 64.7112C149.707 62.9346 147.749 62.0478 145.289 62.0478C143.002 62.0478 141.081 62.8186 139.493 64.3618C137.904 65.905 137.137 67.9213 137.137 70.4185C137.137 72.9158 137.92 74.9368 139.493 76.4815C141.066 78.0263 142.991 78.7955 145.289 78.7955C147.806 78.7955 149.953 77.7803 151.713 75.753L153.585 77.6252C152.604 78.7958 151.373 79.7312 149.982 80.3622C148.506 81.0408 146.899 81.3842 145.275 81.368L145.293 81.3664ZM158.697 80.9027H156.002V59.9454H158.697V80.9027ZM163.088 68.2753C164.475 66.823 166.222 66.093 168.387 66.093C170.552 66.093 172.299 66.8215 173.685 68.2753C175.072 69.7292 175.764 71.5653 175.764 73.7352C175.764 75.905 175.075 77.7411 173.685 79.195C172.296 80.6489 170.552 81.3774 168.387 81.3774C166.222 81.3774 164.475 80.6489 163.088 79.195C161.702 77.7411 161.009 75.905 161.009 73.7352C161.009 71.5653 161.699 69.7292 163.088 68.2753ZM165.094 77.492C166.034 78.4367 167.121 78.9114 168.384 78.9114C169.646 78.9114 170.734 78.4367 171.674 77.492C172.614 76.5473 173.065 75.2909 173.065 73.732C173.065 72.1732 172.6 70.9152 171.674 69.972C170.748 69.0289 169.646 68.5526 168.384 68.5526C167.121 68.5526 166.034 69.0273 165.094 69.972C164.154 70.9167 163.703 72.1732 163.703 73.732C163.703 75.2909 164.168 76.5489 165.094 77.492ZM190.662 80.9027H188.085V78.913H187.967C187.56 79.5945 186.933 80.1773 186.095 80.6363C185.257 81.0954 184.372 81.357 183.432 81.357C181.635 81.357 180.276 80.8118 179.35 79.7167C178.425 78.6216 177.959 77.1583 177.959 75.3253V66.5426H180.654V74.8835C180.654 77.5594 181.834 78.8942 184.195 78.8942C184.723 78.9054 185.246 78.789 185.72 78.555C186.194 78.321 186.605 77.9763 186.917 77.55C187.614 76.6668 187.986 75.5711 187.97 74.4464V66.5426H190.665V80.8886L190.662 80.9027ZM199.792 81.368C197.939 81.368 196.336 80.6348 194.992 79.1715C193.648 77.7082 192.974 75.894 192.974 73.7258C192.974 71.5575 193.648 69.7433 194.992 68.28C196.336 66.8168 197.94 66.0836 199.792 66.0836C200.883 66.0836 201.867 66.3186 202.738 66.7839C203.609 67.2492 204.257 67.8367 204.685 68.5417H204.802L204.685 66.552V59.9407H207.38V80.9027H204.802V78.913H204.685C204.257 79.6133 203.609 80.2008 202.738 80.6708C201.868 81.1314 200.884 81.368 199.792 81.368ZM200.231 78.9083C200.839 78.9166 201.442 78.7955 202 78.5533C202.557 78.311 203.057 77.953 203.466 77.503C204.354 76.5677 204.798 75.3065 204.798 73.743C204.798 72.1795 204.356 70.9026 203.466 69.983C203.057 69.533 202.557 69.175 202 68.9327C201.442 68.6904 200.839 68.5694 200.231 68.5777C198.981 68.5777 197.908 69.0524 197.01 69.9971C196.112 70.9418 195.666 72.1983 195.666 73.7571C195.666 75.3159 196.112 76.574 197.01 77.5171C197.415 77.9687 197.912 78.3288 198.468 78.5735C199.023 78.8182 199.624 78.942 200.231 78.9365V78.9083Z" fill="#5F6368"/>
</svg>
