<svg width="41" height="24" viewBox="0 0 41 24" fill="none" xmlns="http://www.w3.org/2000/svg">
<path d="M12.2712 9.07192C12.2712 9.51233 12.319 9.86935 12.4022 10.1312C12.5079 10.4257 12.6352 10.7121 12.783 10.988C12.8425 11.0832 12.8662 11.1784 12.8662 11.2618C12.8662 11.3807 12.7949 11.4997 12.6402 11.6188L11.8905 12.1186C11.7834 12.19 11.6762 12.2257 11.5809 12.2257C11.462 12.2257 11.3429 12.1662 11.2239 12.0591C11.0634 11.8869 10.92 11.6995 10.7956 11.4997C10.6765 11.2976 10.5575 11.0713 10.4266 10.7976C9.49824 11.8924 8.33195 12.4398 6.92775 12.4399C5.92815 12.4399 5.13072 12.1542 4.54753 11.5831C3.96448 11.0117 3.66699 10.2501 3.66699 9.2981C3.66699 8.28657 4.02401 7.46541 4.74998 6.84656C5.47581 6.22771 6.43988 5.91829 7.66565 5.91829C8.07026 5.91829 8.4868 5.95395 8.92707 6.01347C9.36749 6.073 9.81969 6.16819 10.2958 6.27531V5.40656C10.2958 4.50201 10.1052 3.87137 9.7363 3.50242C9.35555 3.13346 8.71284 2.95488 7.79649 2.95488C7.37995 2.95488 6.95161 3.00262 6.5112 3.10974C6.07079 3.21686 5.64245 3.3477 5.22591 3.51435C5.03554 3.5976 4.89276 3.64519 4.80937 3.66906C4.72597 3.69293 4.66659 3.70472 4.61899 3.70472C4.45235 3.70472 4.36909 3.58567 4.36909 3.33577V2.75258C4.36909 2.56221 4.39296 2.41943 4.45235 2.33618C4.51187 2.25278 4.61899 2.16953 4.78564 2.08628C5.20214 1.87194 5.70193 1.69341 6.28503 1.55068C6.86836 1.39597 7.48721 1.32465 8.14172 1.32465C9.558 1.32465 10.5934 1.64587 11.2598 2.28858C11.9143 2.93116 12.2476 3.90703 12.2476 5.21619V9.07192H12.2712ZM7.43948 10.8809C7.83229 10.8809 8.23691 10.8096 8.66524 10.6666C9.09372 10.5239 9.4746 10.262 9.79582 9.90501C9.98634 9.67898 10.1291 9.42908 10.2004 9.14338C10.2719 8.85782 10.3195 8.5126 10.3195 8.10799V7.60819C9.95857 7.52041 9.59302 7.45287 9.22457 7.40589C8.85353 7.35881 8.47993 7.33494 8.10592 7.33443C7.30849 7.33443 6.72544 7.48914 6.33276 7.8105C5.94009 8.13186 5.74957 8.58406 5.74957 9.17904C5.74957 9.73837 5.89235 10.1549 6.18984 10.4406C6.47554 10.7381 6.89209 10.8809 7.43948 10.8809ZM16.9958 12.1662C16.7816 12.1662 16.6388 12.1305 16.5436 12.0471C16.4485 11.9758 16.3651 11.8092 16.2937 11.5831L13.4971 2.38377C13.4255 2.14566 13.3899 1.99095 13.3899 1.9077C13.3899 1.71733 13.4851 1.61007 13.6756 1.61007H14.8418C15.0678 1.61007 15.2227 1.64587 15.3059 1.72912C15.4011 1.80058 15.4726 1.96722 15.5439 2.19326L17.5432 10.0717L19.3998 2.19326C19.4593 1.95529 19.5308 1.80058 19.6258 1.72912C19.7211 1.6578 19.8878 1.61021 20.102 1.61021H21.054C21.2801 1.61021 21.4349 1.64587 21.53 1.72912C21.6253 1.80058 21.7085 1.96722 21.7561 2.19326L23.6365 10.1668L25.6953 2.19326C25.7666 1.95529 25.85 1.80058 25.9332 1.72912C26.0284 1.6578 26.1831 1.61021 26.3974 1.61021H27.5041C27.6946 1.61021 27.8017 1.70539 27.8017 1.9077C27.8017 1.96722 27.7898 2.02675 27.7778 2.09807C27.7659 2.16939 27.7422 2.26472 27.6946 2.3957L24.8264 11.5949C24.7551 11.833 24.6718 11.9877 24.5765 12.0591C24.4813 12.1305 24.3266 12.1781 24.1244 12.1781H23.101C22.8748 12.1781 22.7201 12.1424 22.6247 12.0591C22.5296 11.9758 22.4463 11.8211 22.3987 11.5831L20.554 3.90703L18.7213 11.571C18.6619 11.8092 18.5904 11.9639 18.4952 12.0471C18.4001 12.1305 18.2334 12.1662 18.0193 12.1662H16.9958ZM32.2884 12.4875C31.6695 12.4875 31.0507 12.4161 30.4557 12.2733C29.8606 12.1305 29.3966 11.9757 29.0871 11.7974C28.8966 11.6901 28.7656 11.5712 28.7182 11.4641C28.6719 11.359 28.6476 11.2456 28.6467 11.1308V10.5239C28.6467 10.274 28.7419 10.1549 28.9205 10.1549C28.9934 10.1552 29.0657 10.1673 29.1347 10.1907C29.2061 10.2146 29.3132 10.262 29.4322 10.3096C29.8525 10.4946 30.2913 10.6343 30.7412 10.7262C31.2074 10.8207 31.6819 10.8685 32.1575 10.8689C32.9072 10.8689 33.4904 10.7381 33.895 10.4763C34.2996 10.2144 34.5139 9.83369 34.5139 9.34569C34.5139 9.01254 34.4068 8.73877 34.1925 8.5126C33.9783 8.28643 33.5737 8.08426 32.9906 7.89375L31.2649 7.35829C30.3962 7.08453 29.7536 6.67992 29.3608 6.14432C28.9681 5.62066 28.7658 5.03761 28.7658 4.41876C28.7658 3.91896 28.8729 3.4786 29.0871 3.09766C29.3012 2.71692 29.5869 2.38377 29.944 2.12194C30.301 1.84817 30.7056 1.64587 31.1817 1.50309C31.6576 1.36031 32.1574 1.30078 32.681 1.30078C32.9429 1.30078 33.2166 1.31271 33.4785 1.34837C33.7522 1.38403 34.0021 1.43163 34.252 1.47922C34.49 1.53875 34.7162 1.59827 34.9304 1.66973C35.1446 1.74105 35.3112 1.81242 35.4302 1.88383C35.5969 1.97916 35.7158 2.07434 35.7872 2.18146C35.8586 2.27665 35.8944 2.40754 35.8944 2.57414V3.13346C35.8944 3.38336 35.7992 3.51435 35.6206 3.51435C35.5254 3.51435 35.3707 3.46662 35.1685 3.37143C34.49 3.062 33.7283 2.90729 32.8835 2.90729C32.2051 2.90729 31.6695 3.01441 31.3006 3.24058C30.9318 3.46662 30.7412 3.81184 30.7412 4.2997C30.7412 4.633 30.8603 4.91855 31.0983 5.14473C31.3362 5.3709 31.7766 5.59693 32.4074 5.79924L34.0973 6.33483C34.9541 6.6086 35.573 6.98934 35.9419 7.47721C36.3109 7.96507 36.4895 8.52453 36.4895 9.14338C36.4895 9.65511 36.3822 10.1193 36.1799 10.5239C35.9658 10.9285 35.6801 11.2855 35.3112 11.5712C34.9422 11.8687 34.5019 12.0829 33.9902 12.2376C33.4546 12.4043 32.8953 12.4875 32.2884 12.4875Z" fill="#252F3E"/>
<path d="M34.5376 18.2713C30.6224 21.1632 24.9337 22.6984 20.0425 22.6984C13.1876 22.6984 7.01116 20.1635 2.34606 15.9506C1.9771 15.6174 2.31026 15.1652 2.75053 15.4269C7.79651 18.3547 14.0207 20.1278 20.4591 20.1278C24.8028 20.1278 29.575 19.2234 33.9665 17.3669C34.621 17.0692 35.1803 17.7953 34.5376 18.2713ZM36.1681 16.4147C35.6683 15.7721 32.8596 16.1053 31.5863 16.26C31.2054 16.3077 31.1459 15.9745 31.4911 15.7246C33.7284 14.1536 37.4058 14.6059 37.8342 15.1294C38.2626 15.665 37.7151 19.3423 35.6206 21.1037C35.2994 21.3775 34.99 21.2347 35.1327 20.8777C35.6087 19.6993 36.6679 17.0455 36.1681 16.4147Z" fill="#FF9900"/>
</svg>
