<svg width="24" height="24" viewBox="0 0 24 24" fill="none" xmlns="http://www.w3.org/2000/svg">
<g clip-path="url(#clip0_116_3965)">
<path d="M8.05268 0.838235H15.0635L7.78576 22.4015C7.71102 22.6231 7.56862 22.8158 7.37861 22.9522C7.18861 23.0886 6.96059 23.162 6.72668 23.1619H1.27068C1.09348 23.1619 0.918829 23.1197 0.761159 23.0389C0.603489 22.958 0.46733 22.8408 0.363935 22.6969C0.260499 22.553 0.192851 22.3865 0.166599 22.2112C0.140347 22.036 0.156248 21.857 0.212983 21.6891L6.9936 1.59851C7.06842 1.3769 7.21084 1.18433 7.40082 1.04788C7.5908 0.911441 7.81878 0.837999 8.05268 0.837891V0.838235Z" fill="url(#paint0_linear_116_3965)"/>
<path d="M18.2402 15.3013H7.12273C7.01935 15.3011 6.91831 15.332 6.83279 15.3901C6.74726 15.4482 6.68123 15.5307 6.6433 15.6269C6.60536 15.723 6.59729 15.8284 6.62014 15.9292C6.64298 16.0301 6.69568 16.1217 6.77136 16.1921L13.9151 22.86C14.1232 23.0538 14.397 23.1617 14.6814 23.1618H20.9765L18.2402 15.3013Z" fill="#0078D4"/>
<path d="M8.05191 0.8379C7.81542 0.836904 7.58482 0.911598 7.39382 1.05106C7.20283 1.19052 7.06147 1.38743 6.99042 1.613L0.220653 21.6705C0.160259 21.839 0.141322 22.0196 0.165444 22.197C0.189566 22.3743 0.256038 22.5433 0.359239 22.6895C0.46244 22.8358 0.599337 22.955 0.758357 23.0372C0.917377 23.1194 1.09384 23.162 1.27284 23.1616H6.86979C7.07825 23.1244 7.27309 23.0325 7.4344 22.8953C7.59571 22.7582 7.7177 22.5806 7.78791 22.3808L9.13787 18.4021L13.9602 22.8999C14.1623 23.067 14.4157 23.1594 14.678 23.1616H20.9497L18.199 15.3011L10.1804 15.303L15.0881 0.8379H8.05191Z" fill="url(#paint1_linear_116_3965)"/>
<path d="M17.0068 1.59713C16.932 1.37586 16.7898 1.1836 16.6 1.0474C16.4103 0.911206 16.1826 0.837931 15.9491 0.837891H8.13574C8.36927 0.837967 8.5969 0.911259 8.7866 1.04745C8.9763 1.18365 9.11853 1.37589 9.19327 1.59713L15.9741 21.6886C16.0308 21.8565 16.0468 22.0356 16.0206 22.2109C15.9944 22.3862 15.9268 22.5527 15.8235 22.6967C15.7201 22.8407 15.5839 22.958 15.4262 23.0389C15.2685 23.1198 15.0938 23.162 14.9165 23.1619H22.7302C22.9074 23.1618 23.082 23.1195 23.2396 23.0386C23.3972 22.9576 23.5333 22.8403 23.6366 22.6964C23.7399 22.5524 23.8075 22.3859 23.8338 22.2107C23.86 22.0355 23.8442 21.8565 23.7876 21.6886L17.0068 1.59713Z" fill="url(#paint2_linear_116_3965)"/>
</g>
<defs>
<linearGradient id="paint0_linear_116_3965" x1="10.608" y1="2.49251" x2="3.32715" y2="24.0017" gradientUnits="userSpaceOnUse">
<stop stop-color="#114A8B"/>
<stop offset="1" stop-color="#0669BC"/>
</linearGradient>
<linearGradient id="paint1_linear_116_3965" x1="12.8815" y1="12.516" x2="11.1974" y2="13.0854" gradientUnits="userSpaceOnUse">
<stop stop-opacity="0.3"/>
<stop offset="0.071" stop-opacity="0.2"/>
<stop offset="0.321" stop-opacity="0.1"/>
<stop offset="0.623" stop-opacity="0.05"/>
<stop offset="1" stop-opacity="0"/>
</linearGradient>
<linearGradient id="paint2_linear_116_3965" x1="11.9556" y1="1.86475" x2="19.9478" y2="23.1573" gradientUnits="userSpaceOnUse">
<stop stop-color="#3CCBF4"/>
<stop offset="1" stop-color="#2892DF"/>
</linearGradient>
<clipPath id="clip0_116_3965">
<rect width="24" height="24" fill="white"/>
</clipPath>
</defs>
</svg>
