<svg width="24" height="24" viewBox="0 0 24 24" fill="none" xmlns="http://www.w3.org/2000/svg">
<path d="M14.7479 8.30519H15.3708L17.146 6.52991L17.2332 5.77623C16.2162 4.87861 14.9872 4.25507 13.6622 3.96451C12.3373 3.67395 10.9601 3.72596 9.66079 4.11562C8.36151 4.50528 7.183 5.21973 6.2366 6.19148C5.29019 7.16324 4.60714 8.36021 4.25195 9.66934C4.44972 9.5883 4.66879 9.57516 4.87483 9.63199L8.42539 9.04639C8.42539 9.04639 8.60603 8.74743 8.69947 8.76615C9.46023 7.93063 10.5116 7.4175 11.6383 7.33181C12.765 7.24611 13.8819 7.59433 14.7603 8.30519H14.7479Z" fill="#F44336"/>
<path d="M19.6752 9.66967C19.2671 8.16704 18.4293 6.81617 17.2647 5.78271L14.773 8.27439C15.2923 8.69868 15.7084 9.23535 15.9901 9.84391C16.2717 10.4525 16.4115 11.1171 16.3988 11.7875V12.2298C16.6916 12.2273 16.982 12.2829 17.2533 12.3932C17.5245 12.5035 17.7712 12.6665 17.9791 12.8726C18.187 13.0788 18.352 13.3241 18.4647 13.5944C18.5773 13.8646 18.6353 14.1546 18.6353 14.4474C18.6353 14.7402 18.5773 15.0301 18.4647 15.3003C18.352 15.5706 18.187 15.8159 17.9791 16.0221C17.7712 16.2282 17.5245 16.3912 17.2533 16.5015C16.982 16.6118 16.6916 16.6674 16.3988 16.6649H11.9637L11.5215 17.1134V19.7732L11.9637 20.2154H16.3988C17.6373 20.2251 18.846 19.8358 19.8461 19.1053C20.8463 18.3747 21.5847 17.3417 21.9521 16.1589C22.3196 14.9762 22.2966 13.7066 21.8866 12.5379C21.4765 11.3692 20.7011 10.3635 19.6752 9.66967Z" fill="#448AFF"/>
<path d="M7.52212 20.1903H11.9572V16.6398H7.52212C7.20614 16.6396 6.89388 16.5716 6.60644 16.4404L5.98356 16.6335L4.1958 18.4087L4.04004 19.0317C5.04254 19.7888 6.26586 20.1959 7.52212 20.1903Z" fill="#43A047"/>
<path d="M7.52271 8.67289C6.32102 8.68006 5.15157 9.06238 4.17772 9.76644C3.20386 10.4705 2.47421 11.4612 2.0907 12.6C1.70718 13.7389 1.68894 14.9691 2.03853 16.1188C2.38811 17.2686 3.08807 18.2804 4.04063 19.013L6.61327 16.4405C6.2863 16.2928 6.00005 16.068 5.77907 15.7854C5.55809 15.5027 5.40899 15.1707 5.34455 14.8178C5.28012 14.4648 5.30227 14.1015 5.40912 13.759C5.51597 13.4165 5.70432 13.1051 5.95801 12.8514C6.2117 12.5977 6.52315 12.4094 6.86564 12.3025C7.20813 12.1957 7.57143 12.1735 7.92437 12.2379C8.27731 12.3024 8.60934 12.4515 8.89198 12.6724C9.17462 12.8934 9.39943 13.1797 9.54711 13.5066L12.1197 10.934C11.5798 10.2281 10.8839 9.65666 10.0864 9.2644C9.28887 8.87215 8.41144 8.6697 7.52271 8.67289Z" fill="#FFC107"/>
</svg>
